<svg width="16" height="16" viewBox="0 0 16 16" fill="none" xmlns="http://www.w3.org/2000/svg">
<path d="M14.8538 6.64687L9.85375 1.64687C9.78386 1.57691 9.69479 1.52924 9.59781 1.50989C9.50082 1.49055 9.40028 1.5004 9.30889 1.53819C9.21751 1.57599 9.13938 1.64004 9.0844 1.72224C9.02942 1.80444 9.00005 1.9011 9 2V4.52187C7.37875 4.66062 5.58813 5.45437 4.115 6.70375C2.34125 8.20875 1.23688 10.1481 1.005 12.1644C0.98688 12.3211 1.01866 12.4796 1.09583 12.6172C1.17299 12.7549 1.2916 12.8647 1.43479 12.931C1.57797 12.9974 1.73842 13.0168 1.89331 12.9867C2.04821 12.9565 2.18964 12.8783 2.2975 12.7631C2.985 12.0312 5.43125 9.71687 9 9.51312V12C9.00005 12.0989 9.02942 12.1956 9.0844 12.2778C9.13938 12.36 9.21751 12.424 9.30889 12.4618C9.40028 12.4996 9.50082 12.5095 9.59781 12.4901C9.69479 12.4708 9.78386 12.4231 9.85375 12.3531L14.8538 7.35312C14.9473 7.25939 14.9998 7.1324 14.9998 7C14.9998 6.8676 14.9473 6.74061 14.8538 6.64687ZM10 10.7931V9C10 8.86739 9.94732 8.74021 9.85355 8.64645C9.75979 8.55268 9.63261 8.5 9.5 8.5C7.745 8.5 6.03563 8.95812 4.41938 9.8625C3.59622 10.3251 2.82926 10.8813 2.13375 11.52C2.49625 10.03 3.41 8.61312 4.76188 7.46625C6.21313 6.23562 7.98438 5.5 9.5 5.5C9.63261 5.5 9.75979 5.44732 9.85355 5.35355C9.94732 5.25978 10 5.13261 10 5V3.2075L13.7931 7L10 10.7931Z" fill="#C9CDCE"/>
</svg>
