<svg width="16" height="16" viewBox="0 0 16 16" fill="none" xmlns="http://www.w3.org/2000/svg">
<path d="M9.71937 1.55063C9.63529 1.50965 9.5414 1.49309 9.44838 1.50281C9.35535 1.51253 9.26692 1.54815 9.19312 1.60563L4.82812 5H2C1.73478 5 1.48043 5.10536 1.29289 5.29289C1.10536 5.48043 1 5.73478 1 6V10C1 10.2652 1.10536 10.5196 1.29289 10.7071C1.48043 10.8946 1.73478 11 2 11H4.82812L9.19312 14.3944C9.26699 14.4518 9.35548 14.4873 9.44855 14.497C9.54161 14.5066 9.63551 14.4899 9.71956 14.4488C9.80362 14.4078 9.87446 14.3439 9.92404 14.2646C9.97361 14.1852 9.99993 14.0936 10 14V2C10 1.90633 9.97371 1.81454 9.9241 1.73509C9.87448 1.65564 9.80355 1.59172 9.71937 1.55063ZM2 6H4.5V10H2V6ZM9 12.9775L5.5 10.2556V5.74437L9 3.0225V12.9775ZM12.375 6.3475C12.7772 6.80405 12.999 7.39158 12.999 8C12.999 8.60842 12.7772 9.19595 12.375 9.6525C12.2867 9.74956 12.1637 9.808 12.0327 9.81521C11.9016 9.82241 11.773 9.77781 11.6745 9.69101C11.5761 9.60421 11.5157 9.48219 11.5065 9.35128C11.4972 9.22036 11.5398 9.09105 11.625 8.99125C11.8662 8.71735 11.9992 8.36493 11.9992 8C11.9992 7.63506 11.8662 7.28265 11.625 7.00875C11.5398 6.90895 11.4972 6.77964 11.5065 6.64872C11.5157 6.51781 11.5761 6.39579 11.6745 6.30899C11.773 6.22219 11.9016 6.17759 12.0327 6.18479C12.1637 6.192 12.2867 6.25044 12.375 6.3475ZM15.5 8C15.5007 9.23013 15.0474 10.4172 14.2269 11.3337C14.1378 11.4301 14.0144 11.4876 13.8833 11.4938C13.7522 11.5 13.624 11.4545 13.5262 11.3669C13.4284 11.2794 13.369 11.157 13.3607 11.026C13.3524 10.895 13.3959 10.766 13.4819 10.6669C14.1378 9.93352 14.5004 8.98417 14.5004 8.00031C14.5004 7.01645 14.1378 6.0671 13.4819 5.33375C13.4369 5.28504 13.402 5.22785 13.3793 5.16553C13.3566 5.10321 13.3465 5.03699 13.3496 4.97073C13.3528 4.90448 13.3691 4.83951 13.3976 4.77961C13.426 4.71971 13.4662 4.66608 13.5156 4.62184C13.565 4.5776 13.6227 4.54364 13.6854 4.52193C13.7481 4.50022 13.8145 4.4912 13.8807 4.49539C13.9469 4.49958 14.0116 4.5169 14.071 4.54634C14.1304 4.57578 14.1834 4.61676 14.2269 4.66687C15.0476 5.58301 15.501 6.77001 15.5 8Z" fill="#C9CDCE"/>
</svg>
