<svg width="16" height="16" viewBox="0 0 16 16" fill="none" xmlns="http://www.w3.org/2000/svg">
<path d="M15.5 7.75C15.4993 7.08771 15.3112 6.43914 14.9572 5.87935C14.6033 5.31957 14.098 4.87146 13.5 4.58688V4.5C13.4994 3.85576 13.2915 3.22882 12.9069 2.71195C12.5224 2.19507 11.9816 1.81572 11.3647 1.63002C10.7479 1.44432 10.0876 1.46214 9.48159 1.68084C8.87561 1.89954 8.35613 2.30751 8.00001 2.84438C7.64389 2.30751 7.12441 1.89954 6.51843 1.68084C5.91245 1.46214 5.25217 1.44432 4.63527 1.63002C4.01838 1.81572 3.47765 2.19507 3.09309 2.71195C2.70854 3.22882 2.50059 3.85576 2.50001 4.5V4.58688C1.90147 4.87068 1.39576 5.31851 1.04164 5.87833C0.687524 6.43814 0.499542 7.08696 0.499542 7.74937C0.499542 8.41179 0.687524 9.06061 1.04164 9.62042C1.39576 10.1802 1.90147 10.6281 2.50001 10.9119V11C2.50059 11.6442 2.70854 12.2712 3.09309 12.7881C3.47765 13.3049 4.01838 13.6843 4.63527 13.87C5.25217 14.0557 5.91245 14.0379 6.51843 13.8192C7.12441 13.6005 7.64389 13.1925 8.00001 12.6556C8.35613 13.1925 8.87561 13.6005 9.48159 13.8192C10.0876 14.0379 10.7479 14.0557 11.3647 13.87C11.9816 13.6843 12.5224 13.3049 12.9069 12.7881C13.2915 12.2712 13.4994 11.6442 13.5 11V10.9119C14.0979 10.6275 14.6031 10.1796 14.9571 9.62005C15.311 9.06048 15.4993 8.41211 15.5 7.75ZM5.50001 13C5.00685 12.9999 4.53111 12.8177 4.16415 12.4882C3.79719 12.1587 3.5649 11.7053 3.51189 11.215C3.67358 11.2381 3.83668 11.2498 4.00001 11.25H4.50001C4.63262 11.25 4.7598 11.1973 4.85356 11.1036C4.94733 11.0098 5.00001 10.8826 5.00001 10.75C5.00001 10.6174 4.94733 10.4902 4.85356 10.3964C4.7598 10.3027 4.63262 10.25 4.50001 10.25H4.00001C3.40974 10.2507 2.83826 10.0425 2.38675 9.66228C1.93524 9.28206 1.63283 8.75434 1.53306 8.17256C1.43329 7.59078 1.54259 6.99246 1.84162 6.48353C2.14065 5.9746 2.61011 5.58789 3.16689 5.39188C3.26431 5.35738 3.34864 5.29355 3.4083 5.20916C3.46795 5.12477 3.49999 5.02397 3.50001 4.92063V4.5C3.50001 3.96957 3.71072 3.46086 4.0858 3.08579C4.46087 2.71071 4.96958 2.5 5.50001 2.5C6.03044 2.5 6.53915 2.71071 6.91422 3.08579C7.2893 3.46086 7.50001 3.96957 7.50001 4.5V8.76625C6.95096 8.27243 6.23847 7.99946 5.50001 8C5.3674 8 5.24023 8.05268 5.14646 8.14645C5.05269 8.24021 5.00001 8.36739 5.00001 8.5C5.00001 8.63261 5.05269 8.75979 5.14646 8.85355C5.24023 8.94732 5.3674 9 5.50001 9C6.03044 9 6.53915 9.21071 6.91422 9.58579C7.2893 9.96086 7.50001 10.4696 7.50001 11C7.50001 11.5304 7.2893 12.0391 6.91422 12.4142C6.53915 12.7893 6.03044 13 5.50001 13ZM12 10.25H11.5C11.3674 10.25 11.2402 10.3027 11.1465 10.3964C11.0527 10.4902 11 10.6174 11 10.75C11 10.8826 11.0527 11.0098 11.1465 11.1036C11.2402 11.1973 11.3674 11.25 11.5 11.25H12C12.1633 11.2498 12.3264 11.2381 12.4881 11.215C12.4466 11.5992 12.2947 11.9631 12.0507 12.2627C11.8067 12.5624 11.4812 12.7849 11.1134 12.9035C10.7457 13.0221 10.3514 13.0316 9.97838 12.9309C9.60533 12.8301 9.26945 12.6235 9.01134 12.3359C8.75324 12.0484 8.58396 11.6922 8.52397 11.3105C8.46399 10.9288 8.51586 10.5378 8.67333 10.185C8.8308 9.8321 9.08711 9.53241 9.41128 9.32212C9.73546 9.11183 10.1136 8.99994 10.5 9C10.6326 9 10.7598 8.94732 10.8536 8.85355C10.9473 8.75979 11 8.63261 11 8.5C11 8.36739 10.9473 8.24021 10.8536 8.14645C10.7598 8.05268 10.6326 8 10.5 8C9.76155 7.99946 9.04906 8.27243 8.50001 8.76625V4.5C8.50001 3.96957 8.71072 3.46086 9.0858 3.08579C9.46087 2.71071 9.96958 2.5 10.5 2.5C11.0304 2.5 11.5392 2.71071 11.9142 3.08579C12.2893 3.46086 12.5 3.96957 12.5 4.5V4.92063C12.5 5.02397 12.5321 5.12477 12.5917 5.20916C12.6514 5.29355 12.7357 5.35738 12.8331 5.39188C13.3899 5.58789 13.8594 5.9746 14.1584 6.48353C14.4574 6.99246 14.5667 7.59078 14.467 8.17256C14.3672 8.75434 14.0648 9.28206 13.6133 9.66228C13.1618 10.0425 12.5903 10.2507 12 10.25ZM13 7C13 7.13261 12.9473 7.25979 12.8536 7.35355C12.7598 7.44732 12.6326 7.5 12.5 7.5H12.25C11.6533 7.5 11.081 7.26295 10.659 6.84099C10.2371 6.41903 10 5.84674 10 5.25V5C10 4.86739 10.0527 4.74022 10.1465 4.64645C10.2402 4.55268 10.3674 4.5 10.5 4.5C10.6326 4.5 10.7598 4.55268 10.8536 4.64645C10.9473 4.74022 11 4.86739 11 5V5.25C11 5.58152 11.1317 5.89946 11.3661 6.13388C11.6005 6.3683 11.9185 6.5 12.25 6.5H12.5C12.6326 6.5 12.7598 6.55268 12.8536 6.64645C12.9473 6.74021 13 6.86739 13 7ZM3.75001 7.5H3.50001C3.3674 7.5 3.24023 7.44732 3.14646 7.35355C3.05269 7.25979 3.00001 7.13261 3.00001 7C3.00001 6.86739 3.05269 6.74021 3.14646 6.64645C3.24023 6.55268 3.3674 6.5 3.50001 6.5H3.75001C4.08153 6.5 4.39947 6.3683 4.63389 6.13388C4.86831 5.89946 5.00001 5.58152 5.00001 5.25V5C5.00001 4.86739 5.05269 4.74022 5.14646 4.64645C5.24023 4.55268 5.3674 4.5 5.50001 4.5C5.63262 4.5 5.7598 4.55268 5.85356 4.64645C5.94733 4.74022 6.00001 4.86739 6.00001 5V5.25C6.00001 5.84674 5.76296 6.41903 5.341 6.84099C4.91904 7.26295 4.34675 7.5 3.75001 7.5Z" fill="#E79471"/>
</svg>
