<svg width="28" height="28" viewBox="0 0 28 28" fill="none" xmlns="http://www.w3.org/2000/svg">
<path d="M24.5 14C24.5 14.2321 24.4078 14.4546 24.2437 14.6187C24.0796 14.7828 23.857 14.875 23.625 14.875H12.25C12.0179 14.875 11.7954 14.7828 11.6313 14.6187C11.4672 14.4546 11.375 14.2321 11.375 14C11.375 13.7679 11.4672 13.5454 11.6313 13.3813C11.7954 13.2172 12.0179 13.125 12.25 13.125H23.625C23.857 13.125 24.0796 13.2172 24.2437 13.3813C24.4078 13.5454 24.5 13.7679 24.5 14ZM12.25 7.875H23.625C23.857 7.875 24.0796 7.78281 24.2437 7.61872C24.4078 7.45462 24.5 7.23206 24.5 7C24.5 6.76793 24.4078 6.54537 24.2437 6.38128C24.0796 6.21719 23.857 6.125 23.625 6.125H12.25C12.0179 6.125 11.7954 6.21719 11.6313 6.38128C11.4672 6.54537 11.375 6.76793 11.375 7C11.375 7.23206 11.4672 7.45462 11.6313 7.61872C11.7954 7.78281 12.0179 7.875 12.25 7.875ZM23.625 20.125H4.37499C4.14292 20.125 3.92036 20.2172 3.75627 20.3813C3.59217 20.5454 3.49999 20.7679 3.49999 21C3.49999 21.2321 3.59217 21.4546 3.75627 21.6187C3.92036 21.7828 4.14292 21.875 4.37499 21.875H23.625C23.857 21.875 24.0796 21.7828 24.2437 21.6187C24.4078 21.4546 24.5 21.2321 24.5 21C24.5 20.7679 24.4078 20.5454 24.2437 20.3813C24.0796 20.2172 23.857 20.125 23.625 20.125ZM3.75592 15.4941C3.83719 15.5754 3.93369 15.64 4.03991 15.684C4.14614 15.728 4.26 15.7507 4.37499 15.7507C4.48997 15.7507 4.60384 15.728 4.71006 15.684C4.81628 15.64 4.91278 15.5754 4.99405 15.4941L9.36905 11.1191C9.4504 11.0378 9.51494 10.9413 9.55898 10.8351C9.60301 10.7288 9.62567 10.615 9.62567 10.5C9.62567 10.385 9.60301 10.2711 9.55898 10.1649C9.51494 10.0587 9.4504 9.9622 9.36905 9.88094L4.99405 5.50594C4.82986 5.34175 4.60718 5.24951 4.37499 5.24951C4.14279 5.24951 3.92011 5.34175 3.75592 5.50594C3.59174 5.67012 3.4995 5.8928 3.4995 6.125C3.4995 6.35719 3.59174 6.57988 3.75592 6.74406L7.51296 10.5L3.75592 14.2559C3.67457 14.3372 3.61003 14.4337 3.566 14.5399C3.52196 14.6461 3.4993 14.76 3.4993 14.875C3.4993 14.99 3.52196 15.1038 3.566 15.2101C3.61003 15.3163 3.67457 15.4128 3.75592 15.4941Z" fill="#D9D9D9"/>
</svg>
