<svg width="28" height="28" viewBox="0 0 28 28" fill="none" xmlns="http://www.w3.org/2000/svg">
<path d="M24 14C24 14.221 23.9122 14.433 23.7559 14.5893C23.5996 14.7455 23.3877 14.8333 23.1667 14.8333H14.8333V23.1667C14.8333 23.3877 14.7455 23.5996 14.5893 23.7559C14.433 23.9122 14.221 24 14 24C13.779 24 13.567 23.9122 13.4107 23.7559C13.2545 23.5996 13.1667 23.3877 13.1667 23.1667V14.8333H4.83333C4.61232 14.8333 4.40036 14.7455 4.24408 14.5893C4.0878 14.433 4 14.221 4 14C4 13.779 4.0878 13.567 4.24408 13.4107C4.40036 13.2545 4.61232 13.1667 4.83333 13.1667H13.1667V4.83333C13.1667 4.61232 13.2545 4.40036 13.4107 4.24408C13.567 4.0878 13.779 4 14 4C14.221 4 14.433 4.0878 14.5893 4.24408C14.7455 4.40036 14.8333 4.61232 14.8333 4.83333V13.1667H23.1667C23.3877 13.1667 23.5996 13.2545 23.7559 13.4107C23.9122 13.567 24 13.779 24 14Z" fill="#D9D9D9"/>
</svg>
