<svg width="22" height="25" viewBox="0 0 22 25" fill="none" xmlns="http://www.w3.org/2000/svg">
<path fill-rule="evenodd" clip-rule="evenodd" d="M11.6 4.38021C11.6 3.82876 11.4739 3.28488 11.2316 2.79164C11.0222 2.36529 10.8993 1.9004 10.8701 1.42465L10.8 0.284088L10.73 1.42461C10.7007 1.90036 10.5778 2.36527 10.3684 2.79163C10.1261 3.28488 10 3.82877 10 4.38023V20.6198C10 21.1712 10.1261 21.7151 10.3684 22.2084C10.5778 22.6347 10.7007 23.0996 10.73 23.5754L10.8 24.7159L10.8701 23.5753C10.8993 23.0996 11.0222 22.6347 11.2316 22.2083C11.4739 21.7151 11.6 21.1713 11.6 20.6198V4.38021ZM7.2316 4.42043C7.4739 4.91367 7.6 5.45758 7.6 6.00902V18.991C7.6 19.5425 7.4739 20.0863 7.2316 20.5796C7.0222 21.0059 6.89925 21.4709 6.87 21.9466L6.8 23.0871L6.73 21.9466C6.70075 21.4709 6.5778 21.0059 6.3684 20.5796C6.1261 20.0863 6 19.5425 6 18.991V6.00902C6 5.45758 6.1261 4.91367 6.3684 4.42043C6.5778 3.99408 6.70075 3.52918 6.73 3.05342L6.8 1.91288L6.87 3.05342C6.89925 3.52918 7.0222 3.99408 7.2316 4.42043ZM5.6 7.63781C5.6 7.08631 5.4739 6.54245 5.2316 6.04923C5.0222 5.62285 4.89924 5.15796 4.87003 4.6822L4.8 3.54166L4.72998 4.6822C4.70077 5.15796 4.5778 5.62285 4.36838 6.04923C4.12612 6.54245 4 7.08631 4 7.63781V17.3622C4 17.9136 4.12612 18.4575 4.36838 18.9508C4.5778 19.3771 4.70077 19.842 4.72998 20.3178L4.8 21.4583L4.87003 20.3178C4.89924 19.842 5.0222 19.3771 5.2316 18.9508C5.4739 18.4575 5.6 17.9136 5.6 17.3622V7.63781ZM3.23162 9.30676C3.47388 9.80003 3.6 10.3439 3.6 10.8954V14.1046C3.6 14.6561 3.47388 15.2 3.23162 15.6932C3.02221 16.1196 2.89924 16.5844 2.87002 17.0602L2.8 18.2008L2.72997 17.0602C2.70076 16.5844 2.5778 16.1196 2.36839 15.6932C2.12613 15.2 2 14.6561 2 14.1046V10.8954C2 10.3439 2.12613 9.80003 2.36839 9.30676C2.5778 8.88042 2.70076 8.41551 2.72997 7.9398L2.8 6.79924L2.87002 7.9398C2.89924 8.41551 3.02221 8.88042 3.23162 9.30676ZM1.59992 12.5L1.6 12.5242V12.4758L1.59992 12.5ZM0 12.5242L8.0711e-05 12.5C0.00370962 13.0432 0.129663 13.5784 0.368385 14.0644C0.577795 14.4908 0.700765 14.9557 0.729975 15.4314L0.8 16.572L0.870025 15.4314C0.899235 14.9557 1.0222 14.4908 1.23161 14.0644C1.47034 13.5784 1.59629 13.0432 1.59992 12.5C1.59629 11.9568 1.47034 11.4216 1.23161 10.9356C1.0222 10.5092 0.899235 10.0443 0.870025 9.56859L0.8 8.42803L0.729975 9.56859C0.700765 10.0443 0.577795 10.5092 0.368385 10.9356C0.129663 11.4216 0.00370963 11.9568 8.0711e-05 12.5L0 12.4758V12.5242ZM9.2316 2.79164C9.4739 3.28488 9.6 3.82876 9.6 4.38022V20.6198C9.6 21.1713 9.4739 21.7151 9.2316 22.2083C9.0222 22.6347 8.89925 23.0996 8.87 23.5753L8.8 24.7159L8.73 23.5753C8.70075 23.0996 8.5778 22.6347 8.3684 22.2083C8.1261 21.7151 8 21.1713 8 20.6198V4.38022C8 3.82876 8.1261 3.28488 8.3684 2.79164C8.5778 2.36528 8.70075 1.90038 8.73 1.42463L8.8 0.284088L8.87 1.42463C8.89925 1.90038 9.0222 2.36528 9.2316 2.79164ZM13.2316 2.79164C13.4739 3.28488 13.6 3.82876 13.6 4.38022V20.6198C13.6 21.1713 13.4739 21.7151 13.2316 22.2083C13.0222 22.6347 12.8993 23.0996 12.87 23.5753L12.8 24.7159L12.73 23.5753C12.7007 23.0996 12.5778 22.6347 12.3684 22.2083C12.1261 21.7151 12 21.1713 12 20.6198V4.38022C12 3.82876 12.1261 3.28488 12.3684 2.79164C12.5778 2.36528 12.7007 1.90038 12.73 1.42463L12.8 0.284088L12.87 1.42463C12.8993 1.90038 13.0222 2.36528 13.2316 2.79164ZM15.6 6.00902C15.6 5.45758 15.4739 4.91367 15.2316 4.42043C15.0222 3.99408 14.8993 3.52918 14.87 3.05342L14.8 1.91288L14.73 3.05342C14.7007 3.52918 14.5778 3.99408 14.3684 4.42043C14.1261 4.91367 14 5.45758 14 6.00902V18.991C14 19.5425 14.1261 20.0863 14.3684 20.5796C14.5778 21.0059 14.7007 21.4709 14.73 21.9466L14.8 23.0871L14.87 21.9466C14.8993 21.4709 15.0222 21.0059 15.2316 20.5796C15.4739 20.0863 15.6 19.5425 15.6 18.991V6.00902ZM17.2316 6.04923C17.4739 6.54245 17.6 7.08631 17.6 7.63781V17.3622C17.6 17.9136 17.4739 18.4575 17.2316 18.9508C17.0222 19.3771 16.8993 19.842 16.87 20.3178L16.8 21.4583L16.73 20.3178C16.7008 19.842 16.5778 19.3771 16.3684 18.9508C16.1262 18.4575 16 17.9136 16 17.3622V7.63781C16 7.08631 16.1262 6.54245 16.3684 6.04923C16.5778 5.62285 16.7008 5.15796 16.73 4.6822L16.8 3.54166L16.87 4.6822C16.8993 5.15796 17.0222 5.62285 17.2316 6.04923ZM19.6 10.8954C19.6 10.3439 19.4739 9.80003 19.2316 9.30676C19.0222 8.88042 18.8993 8.41551 18.87 7.9398L18.8 6.79924L18.73 7.9398C18.7008 8.41551 18.5778 8.88042 18.3684 9.30676C18.1262 9.80003 18 10.3439 18 10.8954V14.1046C18 14.6561 18.1262 15.2 18.3684 15.6932C18.5778 16.1196 18.7008 16.5844 18.73 17.0602L18.8 18.2008L18.87 17.0602C18.8993 16.5844 19.0222 16.1196 19.2316 15.6932C19.4739 15.2 19.6 14.6561 19.6 14.1046V10.8954ZM21.5999 12.5C21.5999 12.508 21.6 12.5161 21.6 12.5242V12.4758C21.6 12.4839 21.5999 12.492 21.5999 12.5ZM20.0001 12.5C20.0037 13.0432 20.1297 13.5784 20.3684 14.0644C20.5778 14.4908 20.7008 14.9557 20.73 15.4314L20.8 16.572L20.87 15.4314C20.8993 14.9557 21.0222 14.4908 21.2316 14.0644C21.4704 13.5784 21.5963 13.0432 21.5999 12.5C21.5963 11.9568 21.4704 11.4216 21.2316 10.9356C21.0222 10.5092 20.8993 10.0443 20.87 9.56859L20.8 8.42803L20.73 9.56859C20.7008 10.0443 20.5778 10.5092 20.3684 10.9356C20.1297 11.4216 20.0037 11.9568 20.0001 12.5ZM20.0001 12.5C20 12.492 20 12.4839 20 12.4758V12.5242C20 12.5161 20 12.508 20.0001 12.5Z" fill="#E79471"/>
</svg>
