<svg width="135" height="13" viewBox="0 0 135 13" fill="none" xmlns="http://www.w3.org/2000/svg">
<path fill-rule="evenodd" clip-rule="evenodd" d="M42.6151 1.53301C42.6151 0.899963 42.1376 0.38678 41.5485 0.38678H40.4818C39.8927 0.38678 39.4151 0.899963 39.4151 1.53301V11.467C39.4151 12.1 39.8927 12.6132 40.4818 12.6132H41.5485C42.1376 12.6132 42.6151 12.1 42.6151 11.467V1.53301ZM35.181 2.83206H36.2477C36.8368 2.83206 37.3144 3.35756 37.3144 4.0058V11.4395C37.3144 12.0877 36.8368 12.6132 36.2477 12.6132H35.181C34.5919 12.6132 34.1144 12.0877 34.1144 11.4395V4.0058C34.1144 3.35756 34.5919 2.83206 35.181 2.83206ZM30.8493 5.48111H29.7826C29.1935 5.48111 28.7159 6.0133 28.7159 6.66979V11.4245C28.7159 12.081 29.1935 12.6132 29.7826 12.6132H30.8493C31.4384 12.6132 31.9159 12.081 31.9159 11.4245V6.66979C31.9159 6.0133 31.4384 5.48111 30.8493 5.48111ZM25.5485 7.9264H24.4818C23.8927 7.9264 23.4151 8.45099 23.4151 9.0981V11.4415C23.4151 12.0886 23.8927 12.6132 24.4818 12.6132H25.5485C26.1376 12.6132 26.6151 12.0886 26.6151 11.4415V9.0981C26.6151 8.45099 26.1376 7.9264 25.5485 7.9264Z" fill="#D9D9D9"/>
<path fill-rule="evenodd" clip-rule="evenodd" d="M58.1865 2.80213C60.6736 2.80223 63.0656 3.72432 64.8681 5.3778C65.0038 5.50545 65.2208 5.50384 65.3545 5.37419L66.6519 4.11072C66.7196 4.04496 66.7574 3.95588 66.7568 3.8632C66.7563 3.77052 66.7174 3.68187 66.649 3.61688C61.9179 -0.757833 54.4542 -0.757833 49.7232 3.61688C49.6547 3.68183 49.6158 3.77044 49.6152 3.86313C49.6145 3.95581 49.6522 4.04491 49.7198 4.11072L51.0177 5.37419C51.1513 5.50404 51.3684 5.50565 51.5041 5.3778C53.3068 3.72421 55.6991 2.80212 58.1865 2.80213ZM58.1831 7.0224C59.5404 7.02232 60.8493 7.53406 61.8554 8.45819C61.9915 8.58934 62.2059 8.5865 62.3385 8.45178L63.6258 7.13247C63.6936 7.06327 63.7312 6.96939 63.7302 6.87184C63.7293 6.77429 63.6898 6.68121 63.6206 6.61342C60.5568 3.72257 55.812 3.72257 52.7482 6.61342C52.679 6.68121 52.6395 6.77434 52.6386 6.87192C52.6377 6.9695 52.6754 7.06337 52.7434 7.13247L54.0303 8.45178C54.1629 8.5865 54.3773 8.58934 54.5134 8.45819C55.5188 7.53467 56.8267 7.02297 58.1831 7.0224ZM60.7075 9.81596C60.7094 9.9213 60.6724 10.0229 60.6051 10.0967L58.4284 12.5514C58.3646 12.6236 58.2776 12.6642 58.1869 12.6642C58.0961 12.6642 58.0091 12.6236 57.9453 12.5514L55.7683 10.0967C55.701 10.0228 55.664 9.92122 55.666 9.81587C55.668 9.71052 55.7088 9.61075 55.7788 9.54014C57.1689 8.22625 59.2048 8.22625 60.5949 9.54014C60.6649 9.61081 60.7056 9.7106 60.7075 9.81596Z" fill="#D9D9D9"/>
<rect opacity="0.35" x="74.2568" y="0.5" width="24" height="12" rx="3.8" stroke="#D9D9D9"/>
<path opacity="0.4" d="M99.7568 4.78113V8.8566C100.562 8.51143 101.085 7.70847 101.085 6.81886C101.085 5.92926 100.562 5.1263 99.7568 4.78113Z" fill="#D9D9D9"/>
<rect x="75.7568" y="2" width="21" height="9" rx="2.5" fill="#D9D9D9"/>
</svg>
