<svg width="74" height="34" viewBox="0 0 74 34" fill="none" xmlns="http://www.w3.org/2000/svg">
<path d="M22.9316 16.3809C23.0129 16.4622 23.0775 16.5587 23.1215 16.6649C23.1655 16.7712 23.1882 16.885 23.1882 17C23.1882 17.115 23.1655 17.2289 23.1215 17.3351C23.0775 17.4413 23.0129 17.5378 22.9316 17.6191L13.9573 26.5878C12.8085 27.7365 11.2503 28.3818 9.62571 28.3817C8.00107 28.3816 6.44302 27.7361 5.2943 26.5873C4.14558 25.4384 3.50029 23.8803 3.5004 22.2556C3.5005 20.631 4.14598 19.0729 5.29485 17.9242L16.1514 6.90797C16.9716 6.0869 18.0844 5.62528 19.2449 5.62466C20.4055 5.62405 21.5188 6.08449 22.3398 6.90469C23.1609 7.72489 23.6225 8.83767 23.6232 9.99823C23.6238 11.1588 23.1633 12.2721 22.3431 13.0931L11.4844 24.1094C10.9912 24.6025 10.3224 24.8796 9.625 24.8796C8.9276 24.8796 8.25876 24.6025 7.76563 24.1094C7.27249 23.6162 6.99545 22.9474 6.99545 22.25C6.99545 21.5526 7.27249 20.8838 7.76563 20.3906L16.8766 11.1353C16.9564 11.0502 17.0524 10.9819 17.159 10.9344C17.2656 10.8869 17.3807 10.8613 17.4973 10.8589C17.614 10.8566 17.73 10.8776 17.8384 10.9207C17.9468 10.9639 18.0455 11.0283 18.1287 11.1101C18.2119 11.192 18.2778 11.2896 18.3227 11.3974C18.3676 11.5051 18.3904 11.6207 18.3899 11.7374C18.3894 11.8541 18.3656 11.9695 18.3198 12.0769C18.2741 12.1842 18.2073 12.2813 18.1234 12.3625L9.01141 21.6277C8.92982 21.7086 8.86498 21.8048 8.82058 21.9108C8.77618 22.0168 8.75309 22.1305 8.75264 22.2454C8.75218 22.3604 8.77436 22.4742 8.81792 22.5806C8.86147 22.6869 8.92555 22.7837 9.00649 22.8652C9.08742 22.9468 9.18364 23.0117 9.28963 23.0561C9.39563 23.1005 9.50934 23.1236 9.62426 23.124C9.73918 23.1245 9.85306 23.1023 9.95941 23.0587C10.0658 23.0152 10.1625 22.9511 10.2441 22.8702L21.1017 11.8594C21.5949 11.3673 21.8723 10.6994 21.873 10.0027C21.8737 9.30603 21.5977 8.63759 21.1055 8.14446C20.6134 7.65132 19.9456 7.37388 19.2489 7.37316C18.5522 7.37244 17.8838 7.64851 17.3906 8.14063L6.53625 19.1525C6.12963 19.5585 5.80695 20.0406 5.58663 20.5713C5.36632 21.102 5.25269 21.6708 5.25224 22.2454C5.25178 22.82 5.3645 23.3891 5.58397 23.9201C5.80344 24.4512 6.12535 24.9338 6.53133 25.3404C6.93731 25.747 7.4194 26.0697 7.95009 26.29C8.48077 26.5103 9.04966 26.624 9.62426 26.6244C10.1989 26.6249 10.7679 26.5121 11.299 26.2927C11.83 26.0732 12.3126 25.7513 12.7192 25.3453L21.6945 16.3766C21.8592 16.2132 22.082 16.1219 22.314 16.1227C22.5459 16.1235 22.7681 16.2164 22.9316 16.3809Z" fill="#7E7E7E"/>
<rect x="40" width="34" height="34" rx="17" fill="white" fill-opacity="0.08"/>
<rect x="40.5" y="0.5" width="33" height="33" rx="16.5" stroke="white" stroke-opacity="0.04"/>
<path d="M63.6739 16.1114C63.6101 16.1753 63.5342 16.226 63.4508 16.2606C63.3673 16.2952 63.2778 16.313 63.1875 16.313C63.0972 16.313 63.0077 16.2952 62.9242 16.2606C62.8408 16.226 62.7649 16.1753 62.7011 16.1114L57.6875 11.0969V24.5625C57.6875 24.7448 57.6151 24.9197 57.4861 25.0486C57.3572 25.1776 57.1823 25.25 57 25.25C56.8177 25.25 56.6428 25.1776 56.5139 25.0486C56.3849 24.9197 56.3125 24.7448 56.3125 24.5625V11.0969L51.2989 16.1114C51.1699 16.2404 50.9949 16.3129 50.8125 16.3129C50.6301 16.3129 50.4551 16.2404 50.3261 16.1114C50.1971 15.9824 50.1246 15.8074 50.1246 15.625C50.1246 15.4426 50.1971 15.2676 50.3261 15.1386L56.5136 8.95109C56.5774 8.88716 56.6533 8.83645 56.7367 8.80186C56.8202 8.76726 56.9097 8.74945 57 8.74945C57.0903 8.74945 57.1798 8.76726 57.2633 8.80186C57.3467 8.83645 57.4226 8.88716 57.4864 8.95109L63.6739 15.1386C63.7378 15.2024 63.7885 15.2783 63.8231 15.3617C63.8577 15.4452 63.8755 15.5346 63.8755 15.625C63.8755 15.7153 63.8577 15.8048 63.8231 15.8883C63.7885 15.9717 63.7378 16.0475 63.6739 16.1114Z" fill="#7E7E7E"/>
</svg>
